# xmcd
#
# Track frame offsets:
#	150
#	13258
#	27071
#	44060
#	60147
#	76383
#	92647
#	107745
#	126836
#	147906
#	163854
#
# Disc length: 2438 seconds
#
# Revision: 0
# Processed by: cddbd v1.4PL0 Copyright (c) Steve Scherf et al.
# Submitted via: EasyCDDAExtractor 4.6.9.1
#
DISCID=8c09840b
DTITLE=Alabama - In The Mood - The Love Songs - CD 2
DYEAR=2003
DGENRE=Country
TTITLE0=Here We Are
TTITLE1=Face To Face
TTITLE2=Take Me Down
TTITLE3=In Pictures
TTITLE4=Close Enough To Perfect
TTITLE5=Forever's As Far As I'll Go
TTITLE6=Love In The First Degree
TTITLE7=There's No Way
TTITLE8=God Must Have Spent A Little More Time On You
TTITLE9=Nothing Comes Close
TTITLE10=Once Upon A Lifetime
EXTD=
EXTT0=
EXTT1=
EXTT2=
EXTT3=
EXTT4=
EXTT5=
EXTT6=
EXTT7=
EXTT8=
EXTT9=
EXTT10=
PLAYORDER=
